<?xml version="1.0" encoding="UTF-8"?>
<!DOCTYPE svg PUBLIC "-//W3C//DTD SVG 1.0//EN" "http://www.w3.org/TR/2001/REC-SVG-20010904/DTD/svg10.dtd">
<!-- Creator: CorelDRAW X8 -->
<svg xmlns="http://www.w3.org/2000/svg" xml:space="preserve" width="21.1666mm" height="21.1666mm" version="1.0" style="shape-rendering:geometricPrecision; text-rendering:geometricPrecision; image-rendering:optimizeQuality; fill-rule:evenodd; clip-rule:evenodd"
viewBox="0 0 2117 2117"
 xmlns:xlink="http://www.w3.org/1999/xlink">
 <defs>
  <style type="text/css">
   <![CDATA[
    .str3 {stroke:#008CCC;stroke-width:33.86}
    .str2 {stroke:#008CCC;stroke-width:67.73}
    .str5 {stroke:#008CCC;stroke-width:16.93}
    .str1 {stroke:#008CCC;stroke-width:16.93}
    .str0 {stroke:black;stroke-width:20}
    .str6 {stroke:#008CCC;stroke-width:25.39}
    .str4 {stroke:#008CCC;stroke-width:84.66;stroke-linejoin:round}
    .fil2 {fill:none}
    .fil4 {fill:none;fill-rule:nonzero}
    .fil0 {fill:white}
    .fil3 {fill:#008CCC}
    .fil5 {fill:white;fill-rule:nonzero}
    .fil1 {fill:#008CCC;fill-rule:nonzero}
   ]]>
  </style>
 </defs>
 <g id="Слой_x0020_1">
  <metadata id="CorelCorpID_0Corel-Layer"/>
  <ellipse class="fil0 str0" cx="1042" cy="1042" rx="947" ry="966"/>
  <path class="fil1 str1" d="M2100 1050c0,-575 -467,-1042 -1042,-1042 -575,0 -1041,467 -1041,1042 0,575 466,1041 1041,1041 575,0 1042,-466 1042,-1041zm-116 0c0,511 -415,925 -926,925 -511,0 -925,-414 -925,-925 0,-511 414,-926 925,-926 511,0 926,415 926,926z"/>
  <path class="fil2 str2" d="M175 1321l373 0 80 315 24 70 36 61 46 20 121 0 487 0 42 -16 31 -35 27 -78 29 -112 58 -225 412 0"/>
  <path class="fil3" d="M629 1612l-67 -231 77 62 30 -7 48 -47 63 48 23 7 21 -2 52 -57 80 58 23 -3 59 -55 65 56 32 9 57 -67 75 60 32 -8 50 -49 68 60 25 -3 65 -55 -67 269 -11 31 -16 46 -11 12 -21 23 -20 8 -638 5 -32 -24 -24 -24 -20 -55 -18 -67z"/>
  <g id="_1805189006272">
   <g>
    <path class="fil4 str3" d="M1153 772l66 163 400 -105 -107 -263 -359 205zm33 81m233 29m146 -183m-233 -29"/>
    <path class="fil4 str3" d="M1573 495l235 178 -6 59 -281 -207 52 -30zm127 53l26 20 -17 22 -26 -19 17 -23z"/>
    <path class="fil2 str3" d="M1201 799l281 -149"/>
    <path class="fil2 str3" d="M1236 885l305 -89"/>
    <path class="fil2 str3" d="M1511 721l-293 119"/>
   </g>
   <g>
    <path class="fil1 str1" d="M1661 838c11,30 23,59 34,89 22,60 142,15 119,-45 -11,-30 -22,-60 -33,-90 -26,-7 -52,-14 -77,-22 -15,23 -29,45 -43,68z"/>
    <path class="fil2 str1" d="M1694 763l-35 -20"/>
    <path class="fil2 str1" d="M1715 718l-13 46"/>
    <path class="fil2 str1" d="M1682 713l17 45"/>
    <path class="fil2 str1" d="M1715 718c-4,0 -27,-5 -29,-3"/>
    <path class="fil2 str1" d="M1676 716c-1,2 -13,25 -13,26l-4 1"/>
   </g>
   <g>
    <path class="fil2 str3" d="M1632 896l-46 144"/>
    <path class="fil2 str4" d="M1614 952l-45 144"/>
   </g>
   <path class="fil4 str1" d="M1884 1090l42 4 28 -74 -84 -8 14 78zm21 2m35 -35m-28 -41m-35 35"/>
   <path class="fil3 str1" d="M1837 1151l30 32 30 32 -30 32 -30 31 -29 -31 -30 -32 30 -32 29 -32z"/>
   <path class="fil3 str1" d="M1632 1182l22 16 22 16 -8 26 -9 26 -27 0 -28 0 -8 -26 -8 -26 22 -16 22 -16z"/>
   <path class="fil3 str5" d="M1600 1287c19,-24 48,-120 80,-126 11,-2 35,-11 61,-13 75,-3 84,36 117,93 38,66 116,49 -56,66 -87,9 -87,18 -189,-1 -39,-8 -28,1 -13,-19z"/>
   <g>
    <path class="fil5" d="M1654 1092c-17,25 -35,51 -52,76 -8,12 -1,32 17,44 17,11 38,11 46,-1 17,-25 35,-51 52,-76l-63 -43zm0 0c-8,12 -1,31 17,43 17,12 38,12 46,0 8,-13 0,-32 -17,-44 -17,-11 -38,-11 -46,1z"/>
    <path id="1" class="fil4 str6" d="M1654 1092c-17,25 -35,51 -52,76 -8,12 -1,32 17,44 17,11 38,11 46,-1 17,-25 35,-51 52,-76m-63 -43c-8,12 -1,31 17,43 17,12 38,12 46,0 8,-13 0,-32 -17,-44 -17,-11 -38,-11 -46,1z"/>
   </g>
  </g>
  <g>
   <g id="_1805189006464">
    <path class="fil4 str3" d="M959 763l-66 162 -400 -104 107 -263 359 205zm-33 81m-233 29m-146 -183m233 -29"/>
    <path class="fil4 str3" d="M539 486l-235 178 6 58 281 -206 -52 -30zm-127 53l-26 19 17 23 26 -19 -17 -23z"/>
    <path class="fil2 str3" d="M911 790l-281 -149"/>
    <path class="fil2 str3" d="M876 876l-306 -89"/>
    <path class="fil2 str3" d="M601 712l293 119"/>
   </g>
   <g id="_1805189005888">
    <path class="fil1 str1" d="M451 828c-11,30 -23,60 -34,90 -23,60 -142,15 -120,-45 12,-30 23,-60 34,-90 26,-7 51,-15 77,-22 14,23 29,45 43,67z"/>
    <path class="fil2 str1" d="M417 754l36 -21"/>
    <path class="fil2 str1" d="M397 709l13 46"/>
    <path class="fil2 str1" d="M429 704l-17 45"/>
    <path class="fil2 str1" d="M397 709c3,-1 26,-5 28,-3"/>
    <path class="fil2 str1" d="M435 706c1,3 14,26 13,27l5 0"/>
   </g>
   <g id="_1805189003904">
    <path class="fil2 str3" d="M480 887l45 144"/>
    <path class="fil2 str4" d="M497 943l46 144"/>
   </g>
   <path class="fil4 str1" d="M228 1081l-42 4 -28 -74 84 -8 -14 78zm-21 2m-35 -35m28 -41m35 35"/>
   <path class="fil3 str1" d="M274 1142l-29 32 -30 32 30 32 29 31 30 -31 30 -32 -30 -32 -30 -32z"/>
   <path class="fil3 str1" d="M480 1173l-22 16 -22 16 8 26 9 26 27 0 27 0 9 -26 8 -26 -22 -16 -22 -16z"/>
   <path class="fil3 str5" d="M512 1278c-19,-24 -49,-120 -80,-126 -12,-2 -35,-12 -61,-13 -76,-4 -84,36 -117,93 -38,66 -116,48 56,66 87,9 87,18 189,-1 39,-8 28,1 13,-19z"/>
   <g>
    <path class="fil5" d="M458 1083c17,25 34,51 52,76 8,12 0,32 -17,43 -18,12 -38,12 -46,0 -18,-26 -35,-51 -52,-77l63 -42zm0 0c8,12 1,31 -17,43 -17,12 -38,11 -46,-1 -8,-12 -1,-31 17,-43 17,-12 38,-11 46,1z"/>
    <path id="1" class="fil4 str6" d="M458 1083c17,25 34,51 52,76 8,12 0,32 -17,43 -18,12 -38,12 -46,0 -18,-26 -35,-51 -52,-77m63 -42c8,12 1,31 -17,43 -17,12 -38,11 -46,-1 -8,-12 -1,-31 17,-43 17,-12 38,-11 46,1z"/>
   </g>
  </g>
 </g>
</svg>
