<?xml version="1.0" encoding="UTF-8"?>
<!DOCTYPE svg PUBLIC "-//W3C//DTD SVG 1.0//EN" "http://www.w3.org/TR/2001/REC-SVG-20010904/DTD/svg10.dtd">
<!-- Creator: CorelDRAW X8 -->
<svg xmlns="http://www.w3.org/2000/svg" xml:space="preserve" width="21.1666mm" height="21.1666mm" version="1.0" style="shape-rendering:geometricPrecision; text-rendering:geometricPrecision; image-rendering:optimizeQuality; fill-rule:evenodd; clip-rule:evenodd"
viewBox="0 0 2117 2117"
 xmlns:xlink="http://www.w3.org/1999/xlink">
 <defs>
  <style type="text/css">
   <![CDATA[
    .str1 {stroke:#008CCC;stroke-width:33.86}
    .str4 {stroke:#008CCC;stroke-width:67.73}
    .str3 {stroke:#008CCC;stroke-width:16.93}
    .str0 {stroke:black;stroke-width:20}
    .str5 {stroke:#008CCC;stroke-width:25.39}
    .str2 {stroke:#008CCC;stroke-width:84.66;stroke-linejoin:round}
    .fil1 {fill:none}
    .fil4 {fill:none;fill-rule:nonzero}
    .fil0 {fill:white}
    .fil3 {fill:#008CCC}
    .fil2 {fill:#008CCC;fill-rule:nonzero}
   ]]>
  </style>
 </defs>
 <g id="Слой_x0020_1">
  <metadata id="CorelCorpID_0Corel-Layer"/>
  <ellipse class="fil0 str0" cx="1042" cy="1042" rx="947" ry="966"/>
  <g id="_1715780375792">
   <path class="fil1 str1" d="M1323 1161l-45 221"/>
   <path class="fil1 str2" d="M1304 1252l-44 221"/>
  </g>
  <path class="fil2 str3" d="M2100 1050c0,-575 -467,-1042 -1042,-1042 -575,0 -1041,467 -1041,1042 0,575 466,1041 1041,1041 575,0 1042,-466 1042,-1041zm-116 0c0,511 -415,925 -926,925 -511,0 -925,-414 -925,-925 0,-511 414,-926 925,-926 511,0 926,415 926,926z"/>
  <path class="fil1 str4" d="M175 1321l373 0 80 315 24 70 36 61 46 20 121 0 487 0 42 -16 31 -35 27 -78 29 -112 58 -225 412 0"/>
  <g id="_1715780374672">
   <path class="fil1 str3" d="M564 1460c72,59 76,104 156,8 1,-2 6,-3 6,-8"/>
   <path class="fil1 str3" d="M719 1460c72,59 75,104 156,8 1,-2 6,-3 6,-8"/>
   <path class="fil1 str3" d="M881 1460c72,59 75,104 156,8 1,-2 6,-3 6,-8"/>
   <path class="fil1 str3" d="M1034 1460c72,59 75,104 156,8 1,-2 6,-3 5,-8"/>
   <path class="fil1 str3" d="M1192 1460c72,59 75,104 156,8 1,-2 6,-3 5,-8"/>
   <path class="fil1 str3" d="M1353 1460c73,59 76,104 156,8 1,-2 6,-3 6,-8"/>
  </g>
  <path class="fil3" d="M629 1612l-67 -231 77 62 30 -7 48 -47 63 48 23 7 21 -2 52 -57 80 58 23 -3 59 -55 65 56 32 9 57 -67 75 60 32 -8 50 -49 68 60 25 -3 65 -55 -67 269 -11 31 -16 46 -11 12 -21 23 -20 8 -638 5 -32 -24 -24 -24 -20 -55 -18 -67z"/>
  <g id="_1715780371664">
   <path class="fil4 str4" d="M277 737l102 251 620 -161 -166 -408 -556 318z"/>
   <path class="fil4 str4" d="M927 307l365 276 -10 91 -435 -321 80 -46zm197 83l41 30 -26 35 -41 -30 26 -35z"/>
   <path class="fil1 str4" d="M351 778l435 -231"/>
   <path class="fil1 str4" d="M406 912l473 -138"/>
   <path class="fil1 str4" d="M831 657l-454 185"/>
  </g>
  <path class="fil4 str5" d="M1149 1033c23,33 46,67 68,100 11,16 1,41 -22,57 -23,15 -50,15 -61,-1 -22,-34 -45,-67 -67,-100m82 -56c11,16 1,41 -22,56 -22,16 -50,15 -60,0 -11,-16 -1,-41 22,-57 23,-15 50,-15 60,1z"/>
  <path class="fil2 str3" d="M1266 828c0,35 0,71 0,106 0,71 -141,71 -141,0 0,-35 0,-71 0,-106 23,-18 47,-36 70,-53 24,17 48,35 71,53z"/>
  <path class="fil1 str3" d="M1203 764l28 -35"/>
  <path class="fil1 str3" d="M1164 725l31 43"/>
  <path class="fil1 str3" d="M1195 707l0 53"/>
  <path class="fil1 str3" d="M1164 725c3,-2 25,-16 28,-14"/>
  <path class="fil1 str3" d="M1203 707c2,2 24,22 23,22l5 0"/>
  <path class="fil1 str3" d="M1390 1015l19 14 18 13 -7 22 -7 22 -23 0 -23 0 -7 -22 -7 -22 19 -13 18 -14z"/>
  <path class="fil3 str3" d="M903 1036l25 26 25 27 -25 26 -25 27 -25 -27 -24 -26 24 -27 25 -26z"/>
  <path class="fil3 str3" d="M1043 1228l49 21 50 21 -54 32 -54 33 5 -54 4 -53z"/>
  <path class="fil4 str3" d="M842 1226l35 -3 24 62 -71 6 12 -65z"/>
  <path class="fil4 str3" d="M967 1022l43 17 74 -123 -86 -34 -31 140z"/>
 </g>
</svg>
