<?xml version="1.0" encoding="UTF-8"?>
<!DOCTYPE svg PUBLIC "-//W3C//DTD SVG 1.0//EN" "http://www.w3.org/TR/2001/REC-SVG-20010904/DTD/svg10.dtd">
<!-- Creator: CorelDRAW X8 -->
<svg xmlns="http://www.w3.org/2000/svg" xml:space="preserve" width="21.1666mm" height="21.1666mm" version="1.0" style="shape-rendering:geometricPrecision; text-rendering:geometricPrecision; image-rendering:optimizeQuality; fill-rule:evenodd; clip-rule:evenodd"
viewBox="0 0 2117 2117"
 xmlns:xlink="http://www.w3.org/1999/xlink">
 <defs>
  <style type="text/css">
   <![CDATA[
    .str2 {stroke:#008CCC;stroke-width:67.73}
    .str1 {stroke:#008CCC;stroke-width:16.93}
    .str3 {stroke:#008CCC;stroke-width:16.93}
    .str0 {stroke:black;stroke-width:20}
    .fil2 {fill:none}
    .fil0 {fill:white}
    .fil3 {fill:#008CCC}
    .fil1 {fill:#008CCC;fill-rule:nonzero}
   ]]>
  </style>
 </defs>
 <g id="Слой_x0020_1">
  <metadata id="CorelCorpID_0Corel-Layer"/>
  <ellipse class="fil0 str0" cx="1042" cy="1042" rx="947" ry="966"/>
  <path class="fil1 str1" d="M2100 1050c0,-575 -467,-1042 -1042,-1042 -575,0 -1041,467 -1041,1042 0,575 466,1041 1041,1041 575,0 1042,-466 1042,-1041zm-116 0c0,511 -415,925 -926,925 -511,0 -925,-414 -925,-925 0,-511 414,-926 925,-926 511,0 926,415 926,926z"/>
  <path class="fil2 str2" d="M175 1321l373 0 80 315 24 70 36 61 46 20 121 0 487 0 42 -16 31 -35 27 -78 29 -112 58 -225 412 0"/>
  <path class="fil3" d="M629 1612l-67 -231 77 62 30 -7 48 -47 63 48 23 7 21 -2 52 -57 80 58 23 -3 59 -55 65 56 32 9 57 -67 75 60 32 -8 50 -49 68 60 25 -3 65 -55 -67 269 -11 31 -16 46 -11 12 -21 23 -20 8 -638 5 -32 -24 -24 -24 -20 -55 -18 -67z"/>
  <path class="fil2 str3" d="M1228 1160l652 -638"/>
  <path class="fil2 str3" d="M2007 864l-436 436"/>
  <path class="fil2 str3" d="M1940 786l-382 382"/>
  <path class="fil2 str3" d="M1228 1160l0 127 301 34 29 -153"/>
  <path class="fil3 str3" d="M1973 762l-415 406 -47 140 72 -8 389 -401 1 -137z"/>
  <path class="fil3 str3" d="M1228 1160l5 122 645 -662 -35 -62 -615 602z"/>
  <path class="fil1 str3" d="M1401 1186c-13,29 -7,53 -16,65 -9,13 -23,22 -39,11 -15,-12 -11,-28 -2,-41 9,-12 33,-14 57,-35z"/>
  <path class="fil1 str3" d="M1514 1170c-13,29 -6,53 -16,66 -9,12 -23,21 -38,10 -16,-11 -12,-27 -3,-40 9,-13 34,-14 57,-36z"/>
  <path class="fil1 str3" d="M1556 1035c-13,29 -6,53 -15,65 -9,13 -23,22 -39,11 -15,-12 -11,-28 -2,-40 9,-13 33,-15 56,-36z"/>
  <path class="fil1 str3" d="M1852 754l-99 103 -31 -29 -38 107 106 -42 -31 -29 100 -104 -7 -6zm-50 52m-64 37m-35 39m34 32m38 -36m34 -66m46 -55"/>
  <path class="fil1 str3" d="M889 749c11,60 42,89 42,119 0,29 -10,59 -42,59 -32,0 -42,-30 -42,-59 0,-30 31,-59 42,-119z"/>
  <path class="fil1 str3" d="M1338 643c11,57 46,85 46,113 0,29 -11,57 -46,57 -35,0 -47,-28 -47,-57 0,-28 35,-56 47,-113z"/>
  <path class="fil1 str3" d="M855 1154c14,65 55,97 55,130 0,32 -14,65 -55,65 -41,0 -55,-33 -55,-65 0,-33 41,-65 55,-130z"/>
  <path class="fil1 str3" d="M1055 270c11,60 43,89 43,119 0,30 -11,59 -43,59 -31,0 -42,-29 -42,-59 0,-30 32,-59 42,-119z"/>
  <path class="fil1 str3" d="M373 868c10,59 42,89 42,118 0,30 -11,60 -42,60 -32,0 -43,-30 -43,-60 0,-29 32,-59 43,-118z"/>
  <path class="fil1 str3" d="M567 453c11,59 43,89 43,118 0,30 -11,60 -43,60 -31,0 -42,-30 -42,-60 0,-29 32,-59 42,-118z"/>
 </g>
</svg>
