<?xml version="1.0" encoding="UTF-8"?>
<!DOCTYPE svg PUBLIC "-//W3C//DTD SVG 1.0//EN" "http://www.w3.org/TR/2001/REC-SVG-20010904/DTD/svg10.dtd">
<!-- Creator: CorelDRAW X8 -->
<svg xmlns="http://www.w3.org/2000/svg" xml:space="preserve" width="21.1666mm" height="21.1666mm" version="1.0" style="shape-rendering:geometricPrecision; text-rendering:geometricPrecision; image-rendering:optimizeQuality; fill-rule:evenodd; clip-rule:evenodd"
viewBox="0 0 2117 2117"
 xmlns:xlink="http://www.w3.org/1999/xlink">
 <defs>
  <style type="text/css">
   <![CDATA[
    .str3 {stroke:#008CCC;stroke-width:33.86}
    .str2 {stroke:#008CCC;stroke-width:42.33}
    .str1 {stroke:#008CCC;stroke-width:16.93}
    .str4 {stroke:#008CCC;stroke-width:16.93}
    .str0 {stroke:black;stroke-width:20}
    .str5 {stroke:#008CCC;stroke-width:50.79}
    .fil3 {fill:none}
    .fil0 {fill:white}
    .fil2 {fill:#008CCC}
    .fil1 {fill:#008CCC;fill-rule:nonzero}
   ]]>
  </style>
 </defs>
 <g id="Слой_x0020_1">
  <metadata id="CorelCorpID_0Corel-Layer"/>
  <ellipse class="fil0 str0" cx="1042" cy="1042" rx="947" ry="966"/>
  <path class="fil1 str1" d="M2100 1050c0,-575 -467,-1042 -1042,-1042 -575,0 -1041,467 -1041,1042 0,575 466,1041 1041,1041 575,0 1042,-466 1042,-1041zm-116 0c0,511 -415,925 -926,925 -511,0 -925,-414 -925,-925 0,-511 414,-926 925,-926 511,0 926,415 926,926z"/>
  <path class="fil2" d="M629 1612l-67 -231 77 62 30 -7 48 -47 63 48 23 7 21 -2 52 -57 80 58 23 -3 59 -55 65 56 32 9 57 -67 75 60 32 -8 50 -49 68 60 25 -3 65 -55 -67 269 -11 31 -16 46 -11 12 -21 23 -20 8 -638 5 -32 -24 -24 -24 -20 -55 -18 -67z"/>
  <path class="fil3 str2" d="M112 1050l232 0 -2 125 100 0 0 105 113 14 50 210 18 143 39 95 49 32 130 0 523 0 44 -25 38 -73 47 -233 29 -84 73 -13 27 -105 63 0 46 -79 100 0 27 -112 148 0"/>
  <g id="_2120813293696">
   <circle class="fil3 str3" cx="407" cy="1291" r="178"/>
   <path class="fil3 str3" d="M274 1188l258 228"/>
   <path class="fil3 str3" d="M283 1418l247 -255"/>
  </g>
  <g id="_2120813295520">
   <circle class="fil3 str3" cx="1725" cy="1266" r="178"/>
   <path class="fil3 str3" d="M1592 1163l259 228"/>
   <path class="fil3 str3" d="M1602 1393l247 -255"/>
  </g>
  <circle class="fil2 str4" cx="483" cy="991" r="28"/>
  <path class="fil3 str5" d="M482 668l0 255"/>
  <circle class="fil2 str4" cx="1650" cy="991" r="28"/>
  <path class="fil3 str5" d="M1649 668l0 255"/>
 </g>
</svg>
